<svg width="154" height="6" viewBox="0 0 154 6" fill="none" xmlns="http://www.w3.org/2000/svg">
<path d="M148.333 2.99999C148.333 4.47275 149.527 5.66665 151 5.66665C152.473 5.66665 153.667 4.47275 153.667 2.99999C153.667 1.52723 152.473 0.33332 151 0.33332C149.527 0.33332 148.333 1.52723 148.333 2.99999ZM0.333333 3C0.333333 4.47276 1.52724 5.66667 3 5.66667C4.47276 5.66667 5.66667 4.47276 5.66667 3C5.66667 1.52724 4.47276 0.333333 3 0.333333C1.52724 0.333333 0.333333 1.52724 0.333333 3ZM151 2.49999L3 2.5L3 3.5L151 3.49999L151 2.49999Z" fill="white"/>
</svg>
