<svg width="220" height="106" viewBox="0 0 220 106" fill="none" xmlns="http://www.w3.org/2000/svg">
<path d="M0.333333 103C0.333333 104.473 1.52724 105.667 3 105.667C4.47276 105.667 5.66667 104.473 5.66667 103C5.66667 101.527 4.47276 100.333 3 100.333C1.52724 100.333 0.333333 101.527 0.333333 103ZM214.333 3C214.333 4.47276 215.527 5.66667 217 5.66667C218.473 5.66667 219.667 4.47276 219.667 3C219.667 1.52724 218.473 0.333333 217 0.333333C215.527 0.333333 214.333 1.52724 214.333 3ZM117 102.5H3V103.5H117V102.5ZM216.5 3C216.5 57.9523 171.952 102.5 117 102.5V103.5C172.505 103.5 217.5 58.5046 217.5 3H216.5Z" fill="white"/>
</svg>
